<svg width="192" height="109" viewBox="0 0 192 109" fill="none" xmlns="http://www.w3.org/2000/svg">
<g clip-path="url(#clip0_107_3646)">
<rect width="192" height="109" rx="4" fill="#ABBB6D"/>
<g filter="url(#filter0_d_107_3646)">
<rect x="154.729" y="28.3376" width="66.9709" height="66.9709" rx="2" transform="rotate(20 154.729 28.3376)" fill="#1F1F21"/>
</g>
<g filter="url(#filter1_d_107_3646)">
<rect x="154.729" y="28.3376" width="66.9709" height="66.9709" rx="2" transform="rotate(20 154.729 28.3376)" fill="#1F1F21"/>
<path d="M162.375 68.9711L162.391 67.1774L159.345 65.9407L158.139 67.2516L156.071 66.4121L162.569 59.8803L164.414 60.6295L164.488 69.8286L162.375 68.9711ZM162.605 62.3429L160.508 64.6386L162.487 65.4419L162.605 62.3429ZM165.061 70.0611L168.473 61.6552L170.319 62.4044L166.907 70.8103L165.061 70.0611ZM175.654 71.1103C175.498 71.4958 175.288 71.8423 175.025 72.15C174.762 72.4577 174.46 72.702 174.119 72.883C173.788 73.0596 173.427 73.1632 173.034 73.1939C172.642 73.2246 172.238 73.1557 171.823 72.9872C171.452 72.8368 171.13 72.6197 170.857 72.3361C170.594 72.048 170.431 71.7271 170.367 71.3732L170.345 71.3641L170.052 72.0869L168.373 71.4054L171.785 62.9995L173.608 63.7396L172.205 67.1976L172.227 67.2066C172.458 67.0845 172.746 67.0028 173.09 66.9614C173.435 66.9201 173.812 66.9822 174.219 67.1477C174.62 67.3101 174.947 67.5339 175.203 67.819C175.466 68.107 175.655 68.4296 175.769 68.7867C175.89 69.1468 175.938 69.5289 175.912 69.9328C175.897 70.3324 175.811 70.7249 175.654 71.1103ZM173.897 70.3972C173.97 70.2193 174.011 70.0331 174.021 69.8385C174.038 69.647 174.017 69.4656 173.957 69.2945C173.9 69.1159 173.806 68.9528 173.676 68.8051C173.546 68.6573 173.374 68.5398 173.159 68.4526C172.951 68.3683 172.749 68.3339 172.553 68.3492C172.357 68.3646 172.172 68.4149 172 68.5002C171.834 68.5885 171.684 68.7043 171.548 68.8477C171.419 68.9942 171.319 69.1563 171.247 69.3342C171.174 69.5121 171.133 69.6984 171.123 69.8929C171.121 70.0905 171.148 70.2785 171.205 70.4571C171.27 70.6387 171.367 70.8033 171.497 70.9511C171.627 71.0988 171.796 71.2148 172.003 71.299C172.218 71.3863 172.424 71.4222 172.62 71.4069C172.816 71.3915 172.997 71.3397 173.162 71.2514C173.328 71.1631 173.471 71.0443 173.592 70.8948C173.723 70.741 173.825 70.5751 173.897 70.3972ZM179.327 75.8517L179.638 75.0845L179.616 75.0755C179.498 75.1744 179.361 75.2569 179.205 75.3229C179.056 75.392 178.891 75.4372 178.709 75.4586C178.535 75.483 178.349 75.485 178.15 75.4647C177.958 75.4473 177.766 75.3996 177.574 75.3213C177.203 75.1709 176.915 74.9763 176.71 74.7376C176.512 74.5019 176.373 74.2471 176.295 73.9734C176.226 73.6952 176.209 73.4077 176.243 73.1107C176.288 72.8094 176.367 72.5179 176.482 72.2362L177.872 68.8116L179.706 69.5562L178.488 72.5583C178.425 72.714 178.376 72.8668 178.341 73.0166C178.306 73.1665 178.295 73.3091 178.31 73.4443C178.331 73.5826 178.38 73.7062 178.457 73.815C178.537 73.9164 178.662 74.0017 178.832 74.0709C179.151 74.2003 179.44 74.1795 179.699 74.0085C179.966 73.8405 180.164 73.5971 180.294 73.2784L181.508 70.2874L183.331 71.0275L181.084 76.5648L179.327 75.8517ZM189.581 80.014L190.809 76.9897C190.872 76.834 190.921 76.6812 190.956 76.5314C190.994 76.3741 191.004 76.2315 190.987 76.1037C190.97 75.9758 190.922 75.8612 190.842 75.7598C190.773 75.6539 190.657 75.5679 190.493 75.5017C190.338 75.4385 190.187 75.4162 190.041 75.4348C189.903 75.4564 189.771 75.5062 189.644 75.5843C189.525 75.6654 189.416 75.7726 189.319 75.9058C189.225 76.0316 189.146 76.1723 189.083 76.328L187.869 79.319L186.046 78.5788L187.327 75.421C187.457 75.1023 187.496 74.8247 187.445 74.5882C187.394 74.3518 187.232 74.1779 186.958 74.0665C186.669 73.9492 186.396 73.9723 186.139 74.1359C185.89 74.3025 185.698 74.5526 185.563 74.8862L184.344 77.8883L182.51 77.1436L184.757 71.6064L186.525 72.324L186.214 73.0912L186.236 73.1002C186.351 73.0087 186.479 72.9269 186.621 72.8548C186.769 72.7857 186.931 72.739 187.105 72.7147C187.282 72.6829 187.466 72.6756 187.658 72.6929C187.857 72.7133 188.06 72.7656 188.267 72.8498C188.668 73.0123 188.972 73.2307 189.18 73.5051C189.395 73.7825 189.519 74.1048 189.552 74.4719C189.854 74.258 190.185 74.1245 190.543 74.0714C190.901 74.0182 191.288 74.0759 191.703 74.2444C192.081 74.3978 192.368 74.5961 192.562 74.8393C192.768 75.078 192.903 75.3401 192.969 75.6257C193.037 75.9039 193.049 76.1936 193.004 76.495C192.97 76.7919 192.9 77.0701 192.795 77.3295L191.405 80.7542L189.581 80.014Z" fill="white"/>
</g>
</g>
<defs>
<filter id="filter0_d_107_3646" x="127.823" y="27.3376" width="91.8375" height="91.8374" filterUnits="userSpaceOnUse" color-interpolation-filters="sRGB">
<feFlood flood-opacity="0" result="BackgroundImageFix"/>
<feColorMatrix in="SourceAlpha" type="matrix" values="0 0 0 0 0 0 0 0 0 0 0 0 0 0 0 0 0 0 127 0" result="hardAlpha"/>
<feOffset dx="-1" dy="2"/>
<feGaussianBlur stdDeviation="1.5"/>
<feColorMatrix type="matrix" values="0 0 0 0 0 0 0 0 0 0 0 0 0 0 0 0 0 0 0.25 0"/>
<feBlend mode="normal" in2="BackgroundImageFix" result="effect1_dropShadow_107_3646"/>
<feBlend mode="normal" in="SourceGraphic" in2="effect1_dropShadow_107_3646" result="shape"/>
</filter>
<filter id="filter1_d_107_3646" x="127.823" y="27.3376" width="91.8375" height="91.8374" filterUnits="userSpaceOnUse" color-interpolation-filters="sRGB">
<feFlood flood-opacity="0" result="BackgroundImageFix"/>
<feColorMatrix in="SourceAlpha" type="matrix" values="0 0 0 0 0 0 0 0 0 0 0 0 0 0 0 0 0 0 127 0" result="hardAlpha"/>
<feOffset dx="-1" dy="2"/>
<feGaussianBlur stdDeviation="1.5"/>
<feColorMatrix type="matrix" values="0 0 0 0 0 0 0 0 0 0 0 0 0 0 0 0 0 0 0.25 0"/>
<feBlend mode="normal" in2="BackgroundImageFix" result="effect1_dropShadow_107_3646"/>
<feBlend mode="normal" in="SourceGraphic" in2="effect1_dropShadow_107_3646" result="shape"/>
</filter>
<clipPath id="clip0_107_3646">
<rect width="192" height="109" rx="4" fill="white"/>
</clipPath>
</defs>
</svg>
