<svg width="190" height="109" viewBox="0 0 190 109" fill="none" xmlns="http://www.w3.org/2000/svg">
<g clip-path="url(#clip0_107_3634)">
<rect width="190" height="109" rx="4" fill="#678026"/>
<g filter="url(#filter0_d_107_3634)">
<rect x="152.729" y="28.3376" width="66.9709" height="66.9709" rx="2" transform="rotate(20 152.729 28.3376)" fill="#1F1F21"/>
</g>
<g filter="url(#filter1_d_107_3634)">
<rect x="152.729" y="28.3376" width="66.9709" height="66.9709" rx="2" transform="rotate(20 152.729 28.3376)" fill="#1F1F21"/>
<path d="M160.375 68.9711L160.391 67.1774L157.345 65.9407L156.139 67.2516L154.071 66.4121L160.569 59.8803L162.414 60.6295L162.488 69.8286L160.375 68.9711ZM160.605 62.3429L158.508 64.6386L160.487 65.4419L160.605 62.3429ZM163.061 70.0611L166.473 61.6552L168.319 62.4044L164.907 70.8103L163.061 70.0611ZM173.654 71.1103C173.498 71.4958 173.288 71.8423 173.025 72.15C172.762 72.4577 172.46 72.702 172.119 72.883C171.788 73.0596 171.427 73.1632 171.034 73.1939C170.642 73.2246 170.238 73.1557 169.823 72.9872C169.452 72.8368 169.13 72.6197 168.857 72.3361C168.594 72.048 168.431 71.7271 168.367 71.3732L168.345 71.3641L168.052 72.0869L166.373 71.4054L169.785 62.9995L171.608 63.7396L170.205 67.1976L170.227 67.2066C170.458 67.0845 170.746 67.0028 171.09 66.9614C171.435 66.9201 171.812 66.9822 172.219 67.1477C172.62 67.3101 172.947 67.5339 173.203 67.819C173.466 68.107 173.655 68.4296 173.769 68.7867C173.89 69.1468 173.938 69.5289 173.912 69.9328C173.897 70.3324 173.811 70.7249 173.654 71.1103ZM171.897 70.3972C171.97 70.2193 172.011 70.0331 172.021 69.8385C172.038 69.647 172.017 69.4656 171.957 69.2945C171.9 69.1159 171.806 68.9528 171.676 68.8051C171.546 68.6573 171.374 68.5398 171.159 68.4526C170.951 68.3683 170.749 68.3339 170.553 68.3492C170.357 68.3646 170.172 68.4149 170 68.5002C169.834 68.5885 169.684 68.7043 169.548 68.8477C169.419 68.9942 169.319 69.1563 169.247 69.3342C169.174 69.5121 169.133 69.6984 169.123 69.8929C169.121 70.0905 169.148 70.2785 169.205 70.4571C169.27 70.6387 169.367 70.8033 169.497 70.9511C169.627 71.0988 169.796 71.2148 170.003 71.299C170.218 71.3863 170.424 71.4222 170.62 71.4069C170.816 71.3915 170.997 71.3397 171.162 71.2514C171.328 71.1631 171.471 71.0443 171.592 70.8948C171.723 70.741 171.825 70.5751 171.897 70.3972ZM177.327 75.8517L177.638 75.0845L177.616 75.0755C177.498 75.1744 177.361 75.2569 177.205 75.3229C177.056 75.392 176.891 75.4372 176.709 75.4586C176.535 75.483 176.349 75.485 176.15 75.4647C175.958 75.4473 175.766 75.3996 175.574 75.3213C175.203 75.1709 174.915 74.9763 174.71 74.7376C174.512 74.5019 174.373 74.2471 174.295 73.9734C174.226 73.6952 174.209 73.4077 174.243 73.1107C174.288 72.8094 174.367 72.5179 174.482 72.2362L175.872 68.8116L177.706 69.5562L176.488 72.5583C176.425 72.714 176.376 72.8668 176.341 73.0166C176.306 73.1665 176.295 73.3091 176.31 73.4443C176.331 73.5826 176.38 73.7062 176.457 73.815C176.537 73.9164 176.662 74.0017 176.832 74.0709C177.151 74.2003 177.44 74.1795 177.699 74.0085C177.966 73.8405 178.164 73.5971 178.294 73.2784L179.508 70.2874L181.331 71.0275L179.084 76.5648L177.327 75.8517ZM187.581 80.014L188.809 76.9896C188.872 76.834 188.921 76.6812 188.956 76.5314C188.994 76.3741 189.004 76.2315 188.987 76.1037C188.97 75.9758 188.922 75.8612 188.842 75.7598C188.773 75.6539 188.657 75.5679 188.493 75.5017C188.338 75.4385 188.187 75.4162 188.041 75.4348C187.903 75.4564 187.771 75.5062 187.644 75.5843C187.525 75.6654 187.416 75.7726 187.319 75.9058C187.225 76.0316 187.146 76.1723 187.083 76.328L185.869 79.319L184.046 78.5788L185.327 75.421C185.457 75.1023 185.496 74.8247 185.445 74.5882C185.394 74.3518 185.232 74.1779 184.958 74.0665C184.669 73.9492 184.396 73.9723 184.139 74.1359C183.89 74.3025 183.698 74.5526 183.563 74.8862L182.344 77.8883L180.51 77.1436L182.757 71.6064L184.525 72.324L184.214 73.0912L184.236 73.1002C184.351 73.0087 184.479 72.9269 184.621 72.8548C184.769 72.7857 184.931 72.739 185.105 72.7147C185.282 72.6829 185.466 72.6756 185.658 72.6929C185.857 72.7133 186.06 72.7656 186.267 72.8498C186.668 73.0123 186.972 73.2307 187.18 73.5051C187.395 73.7825 187.519 74.1048 187.552 74.4719C187.854 74.258 188.185 74.1245 188.543 74.0714C188.901 74.0182 189.288 74.0759 189.703 74.2444C190.081 74.3978 190.368 74.5961 190.562 74.8393C190.768 75.078 190.903 75.3401 190.969 75.6257C191.037 75.9039 191.049 76.1936 191.004 76.495C190.97 76.7919 190.9 77.0701 190.795 77.3295L189.405 80.7542L187.581 80.014Z" fill="white"/>
</g>
<path d="M17.168 32V20.672H19.92V32H17.168ZM27.3498 32V27.648C27.3498 27.424 27.3284 27.2107 27.2858 27.008C27.2538 26.8053 27.1951 26.6293 27.1098 26.48C27.0244 26.32 26.9018 26.1973 26.7418 26.112C26.5924 26.016 26.4004 25.968 26.1658 25.968C25.9311 25.968 25.7231 26.016 25.5418 26.112C25.3711 26.1973 25.2271 26.32 25.1098 26.48C24.9924 26.64 24.9018 26.8267 24.8378 27.04C24.7844 27.2427 24.7578 27.456 24.7578 27.68V32H22.1178V24.032H24.6618V25.136H24.6938C24.7898 24.9653 24.9124 24.8 25.0618 24.64C25.2218 24.4693 25.4031 24.3253 25.6058 24.208C25.8191 24.0907 26.0484 23.9947 26.2938 23.92C26.5391 23.8453 26.8004 23.808 27.0778 23.808C27.6111 23.808 28.0644 23.904 28.4378 24.096C28.8111 24.288 29.1098 24.5387 29.3338 24.848C29.5684 25.1467 29.7338 25.4933 29.8298 25.888C29.9364 26.2827 29.9898 26.6773 29.9898 27.072V32H27.3498ZM38.0091 32V30.96H37.9771C37.7211 31.3653 37.3531 31.68 36.8731 31.904C36.4038 32.1173 35.9025 32.224 35.3691 32.224C34.7718 32.224 34.2385 32.1067 33.7691 31.872C33.2998 31.6373 32.8998 31.328 32.5691 30.944C32.2491 30.5493 32.0038 30.096 31.8331 29.584C31.6625 29.072 31.5771 28.5387 31.5771 27.984C31.5771 27.4293 31.6625 26.9013 31.8331 26.4C32.0145 25.888 32.2651 25.44 32.5851 25.056C32.9158 24.672 33.3105 24.368 33.7691 24.144C34.2385 23.92 34.7611 23.808 35.3371 23.808C35.9238 23.808 36.4198 23.92 36.8251 24.144C37.2305 24.368 37.5451 24.6133 37.7691 24.88H37.8011V19.904H40.4251V32H38.0091ZM37.9131 28C37.9131 27.744 37.8651 27.4933 37.7691 27.248C37.6838 27.0027 37.5558 26.784 37.3851 26.592C37.2251 26.4 37.0278 26.2453 36.7931 26.128C36.5585 26.0107 36.2918 25.952 35.9931 25.952C35.6838 25.952 35.4118 26.0107 35.1771 26.128C34.9425 26.2453 34.7451 26.4 34.5851 26.592C34.4251 26.7733 34.3025 26.9867 34.2171 27.232C34.1425 27.4773 34.1051 27.728 34.1051 27.984C34.1051 28.24 34.1425 28.496 34.2171 28.752C34.3025 28.9973 34.4251 29.216 34.5851 29.408C34.7451 29.6 34.9425 29.7547 35.1771 29.872C35.4118 29.9893 35.6838 30.048 35.9931 30.048C36.2918 30.048 36.5585 29.9893 36.7931 29.872C37.0278 29.7547 37.2251 29.6 37.3851 29.408C37.5558 29.216 37.6838 28.9973 37.7691 28.752C37.8651 28.5067 37.9131 28.256 37.9131 28ZM45.3564 21.488C45.3564 21.6907 45.3137 21.8827 45.2284 22.064C45.1537 22.2347 45.047 22.384 44.9084 22.512C44.7804 22.64 44.6204 22.7413 44.4284 22.816C44.247 22.8907 44.055 22.928 43.8524 22.928C43.4257 22.928 43.0684 22.7893 42.7804 22.512C42.4924 22.224 42.3484 21.8827 42.3484 21.488C42.3484 21.296 42.3857 21.1147 42.4604 20.944C42.535 20.7627 42.6417 20.608 42.7804 20.48C42.919 20.352 43.079 20.2507 43.2604 20.176C43.4417 20.0907 43.639 20.048 43.8524 20.048C44.055 20.048 44.247 20.0853 44.4284 20.16C44.6204 20.2347 44.7804 20.336 44.9084 20.464C45.047 20.592 45.1537 20.7467 45.2284 20.928C45.3137 21.0987 45.3564 21.2853 45.3564 21.488ZM42.5404 32V24.032H45.1644V32H42.5404ZM52.7308 27.104C52.7308 26.688 52.5974 26.3307 52.3308 26.032C52.0748 25.7333 51.6854 25.584 51.1628 25.584C50.9068 25.584 50.6721 25.6267 50.4588 25.712C50.2454 25.7867 50.0588 25.8933 49.8988 26.032C49.7388 26.1707 49.6108 26.336 49.5148 26.528C49.4188 26.7093 49.3654 26.9013 49.3548 27.104H52.7308ZM55.1468 28.112C55.1468 28.2187 55.1468 28.3253 55.1468 28.432C55.1468 28.5387 55.1414 28.64 55.1308 28.736H49.3548C49.3761 28.96 49.4401 29.1627 49.5468 29.344C49.6641 29.5253 49.8081 29.6853 49.9788 29.824C50.1601 29.952 50.3574 30.0533 50.5708 30.128C50.7948 30.2027 51.0241 30.24 51.2588 30.24C51.6748 30.24 52.0268 30.1653 52.3148 30.016C52.6028 29.856 52.8374 29.6533 53.0188 29.408L54.8428 30.56C54.4694 31.104 53.9734 31.5253 53.3548 31.824C52.7468 32.112 52.0374 32.256 51.2268 32.256C50.6294 32.256 50.0641 32.1653 49.5308 31.984C48.9974 31.792 48.5281 31.52 48.1228 31.168C47.7281 30.8053 47.4134 30.3627 47.1788 29.84C46.9548 29.3173 46.8428 28.72 46.8428 28.048C46.8428 27.3973 46.9548 26.8107 47.1788 26.288C47.4028 25.7547 47.7068 25.3067 48.0908 24.944C48.4748 24.5707 48.9281 24.2827 49.4508 24.08C49.9734 23.8773 50.5388 23.776 51.1468 23.776C51.7334 23.776 52.2721 23.8773 52.7628 24.08C53.2534 24.272 53.6748 24.5547 54.0268 24.928C54.3788 25.3013 54.6508 25.7547 54.8428 26.288C55.0454 26.8213 55.1468 27.4293 55.1468 28.112Z" fill="white"/>
</g>
<defs>
<filter id="filter0_d_107_3634" x="125.823" y="27.3376" width="91.8375" height="91.8374" filterUnits="userSpaceOnUse" color-interpolation-filters="sRGB">
<feFlood flood-opacity="0" result="BackgroundImageFix"/>
<feColorMatrix in="SourceAlpha" type="matrix" values="0 0 0 0 0 0 0 0 0 0 0 0 0 0 0 0 0 0 127 0" result="hardAlpha"/>
<feOffset dx="-1" dy="2"/>
<feGaussianBlur stdDeviation="1.5"/>
<feColorMatrix type="matrix" values="0 0 0 0 0 0 0 0 0 0 0 0 0 0 0 0 0 0 0.25 0"/>
<feBlend mode="normal" in2="BackgroundImageFix" result="effect1_dropShadow_107_3634"/>
<feBlend mode="normal" in="SourceGraphic" in2="effect1_dropShadow_107_3634" result="shape"/>
</filter>
<filter id="filter1_d_107_3634" x="125.823" y="27.3376" width="91.8375" height="91.8374" filterUnits="userSpaceOnUse" color-interpolation-filters="sRGB">
<feFlood flood-opacity="0" result="BackgroundImageFix"/>
<feColorMatrix in="SourceAlpha" type="matrix" values="0 0 0 0 0 0 0 0 0 0 0 0 0 0 0 0 0 0 127 0" result="hardAlpha"/>
<feOffset dx="-1" dy="2"/>
<feGaussianBlur stdDeviation="1.5"/>
<feColorMatrix type="matrix" values="0 0 0 0 0 0 0 0 0 0 0 0 0 0 0 0 0 0 0.25 0"/>
<feBlend mode="normal" in2="BackgroundImageFix" result="effect1_dropShadow_107_3634"/>
<feBlend mode="normal" in="SourceGraphic" in2="effect1_dropShadow_107_3634" result="shape"/>
</filter>
<clipPath id="clip0_107_3634">
<rect width="190" height="109" rx="4" fill="white"/>
</clipPath>
</defs>
</svg>
